<svg width="92" height="92" viewBox="0 0 92 92" fill="none" xmlns="http://www.w3.org/2000/svg">
<g id="Isotipo">
<path id="Vector" d="M46 92C20.635 92 0 71.365 0 46C0 20.635 20.635 0 46 0C71.365 0 92 20.635 92 46C92 71.365 71.365 92 46 92Z" fill="url(#paint0_linear_229_293)"/>
<path id="Vector_2" d="M32.7856 51.7847C31.5276 58.6475 34.8536 65.2331 41.036 68.4799C47.0961 71.6602 54.5725 70.4382 59.5293 65.7028C62.7366 62.6395 65.5749 55.5608 63.5735 51.585C57.3227 62.6827 41.1422 64.5815 32.7838 51.7847H32.7856Z" fill="#EDF2F2"/>
<path id="Vector_3" d="M28.565 34.6862C23.0252 40.2261 19.9925 47.2562 20.0267 54.4843C16.3802 44.5007 18.9702 33.7719 26.9542 25.7878C31.9973 20.7447 39.148 17.4474 45.3214 16.8535C49.2721 16.4053 49.4233 19.6162 49.5096 20.7483C49.5708 21.5601 49.6086 24.366 49.623 25.5791C49.6266 25.8886 49.3711 26.1316 49.0615 26.1226C41.7956 25.912 34.4865 28.7666 28.565 34.688V34.6862Z" fill="#EDF2F2"/>
<path id="Vector_4" d="M68.739 35.8291C67.7887 34.8787 67.346 34.5152 66.8276 34.1066L66.6584 33.9716C65.116 32.7388 62.9022 32.8611 61.5073 34.2542L47.5748 48.1867L45.0533 45.6651C43.8204 44.4322 43.8204 42.4254 45.0533 41.1925L61.1383 25.1075C62.2794 23.9664 64.0883 23.8656 65.3535 24.8771L65.5245 25.0121C66.0429 25.4207 66.4532 25.759 67.3766 26.6805C73.1288 32.4328 75.3966 39.9543 75.4128 45.7983C73.9711 41.8873 71.9877 39.0759 68.7408 35.8273L68.739 35.8291Z" fill="#EDF2F2"/>
</g>
<defs>
<linearGradient id="paint0_linear_229_293" x1="46" y1="0" x2="46" y2="92" gradientUnits="userSpaceOnUse">
<stop stop-color="#FFE833"/>
<stop offset="0.07" stop-color="#FFE231"/>
<stop offset="0.16" stop-color="#FFD32B"/>
<stop offset="0.26" stop-color="#FFB922"/>
<stop offset="0.36" stop-color="#FF9615"/>
<stop offset="0.47" stop-color="#FF6804"/>
<stop offset="0.5" stop-color="#FF5C00"/>
<stop offset="0.55" stop-color="#FD4D00"/>
<stop offset="0.68" stop-color="#F92B01"/>
<stop offset="0.8" stop-color="#F71301"/>
<stop offset="0.91" stop-color="#F50501"/>
<stop offset="1" stop-color="#F50002"/>
</linearGradient>
</defs>
</svg>
