<svg width="213" height="248" viewBox="0 0 213 248" fill="none" xmlns="http://www.w3.org/2000/svg">
<g id="Capa_1" clip-path="url(#clip0_220_99)">
<g id="Group">
<path id="Vector" d="M213 0C154.177 -2.57124e-06 106.494 48.0584 106.494 107.346L213 107.346L213 0Z" fill="#FFE800"/>
<path id="Vector_2" d="M106.495 0C47.6713 -2.57124e-06 -0.0109961 48.0584 -0.0109986 107.346L106.495 107.346L106.495 0Z" fill="#FFE800"/>
</g>
<g id="Group_2">
<path id="Vector_3" d="M1.05666e-05 248C58.8232 248 106.506 199.942 106.506 140.654L1.52588e-05 140.654L1.05666e-05 248Z" fill="#FFE800"/>
<path id="Vector_4" d="M106.494 248C165.318 248 213 199.942 213 140.666L106.494 140.666L106.494 248.012L106.494 248Z" fill="#FFE800"/>
</g>
</g>
<defs>
<clipPath id="clip0_220_99">
<rect width="248" height="213" fill="white" transform="translate(213) rotate(90)"/>
</clipPath>
</defs>
</svg>
