<svg width="121" height="118" viewBox="0 0 121 118" fill="none" xmlns="http://www.w3.org/2000/svg">
<g id="Ojo vector">
<path id="Vector" d="M95.0285 32.4228C88.4694 26.1318 77.0715 18.6425 60.0593 18.6425C43.0471 18.6425 31.6493 26.1395 25.0901 32.4228C17.2484 39.9427 12.21 49.6749 11.6109 58.4777C11.488 59.1767 11.4957 59.9141 11.6416 60.6131C13.3621 76.8821 31.127 99.3652 60.067 99.3652C89.007 99.3652 106.772 76.8821 108.492 60.6131C108.631 59.9141 108.638 59.1767 108.523 58.4777C107.924 49.6749 102.886 39.9427 95.0438 32.4228H95.0285ZM60.0593 95.5322C32.6938 95.5322 16.5495 74.3472 15.382 59.0077C16.5495 43.6682 32.6938 22.4832 60.0593 22.4832C87.4248 22.4832 103.561 43.6682 104.737 59.0154C103.569 74.3549 87.4248 95.5399 60.0593 95.5399V95.5322Z" fill="#EBF1F1"/>
<path id="Vector_2" d="M60.0594 34.8654C34.975 34.8654 25.0364 54.0686 23.293 57.9247C22.9858 58.6083 22.9858 59.3995 23.293 60.0831C25.0288 63.9314 34.975 83.1423 60.0594 83.1423C85.1438 83.1423 95.0823 63.9391 96.8181 60.0831C97.1253 59.3995 97.1253 58.6083 96.8181 57.9247C95.0823 54.0763 85.1361 34.8654 60.0594 34.8654ZM60.0594 78.9253C38.6923 78.9253 29.5526 63.2862 27.4481 59.0077C29.5449 54.7216 38.6846 39.0901 60.0594 39.0901C81.4341 39.0901 90.5739 54.7292 92.6706 59.0077C90.5739 63.2939 81.4341 78.9253 60.0594 78.9253Z" fill="#EBF1F1"/>
<path id="Vector_3" d="M60.0592 0C27.087 0 0.151575 26.439 0.00564564 58.9309C-0.00971529 59.7912 0.00564564 60.6592 0.0594089 61.4887C0.750651 76.4903 7.24065 90.6085 18.3312 101.239C29.5985 112.047 44.4218 118 60.0592 118C75.6966 118 90.5123 112.047 101.787 101.239C112.878 90.6085 119.368 76.4903 120.059 61.5041C120.105 60.6515 120.128 59.7912 120.113 58.9462C119.967 26.439 93.0315 0 60.0592 0ZM60.0592 115.027C28.7383 115.027 3.1316 89.8942 2.97799 59.0077C3.1316 28.1135 28.7383 2.97266 60.0592 2.97266C91.3802 2.97266 116.987 28.1059 117.14 58.9923C116.987 89.8865 91.3802 115.02 60.0592 115.02V115.027Z" fill="#EBF1F1"/>
<path id="Vector_4" d="M60.0591 40.4958C49.8595 40.4958 41.5569 48.7916 41.5569 59C41.5569 69.2084 49.8595 77.5042 60.0591 77.5042C70.2588 77.5042 78.5614 69.2007 78.5614 59C78.5614 48.7992 70.2665 40.4958 60.0591 40.4958ZM60.0591 73.2795C52.1867 73.2795 45.7735 66.8733 45.7735 58.9923C45.7735 51.1113 52.179 44.7051 60.0591 44.7051C67.9393 44.7051 74.3448 51.1113 74.3448 58.9923C74.3448 66.8733 67.9393 73.2795 60.0591 73.2795Z" fill="#EBF1F1"/>
<path id="Vector_5" d="M67.0912 60.1464C67.7213 56.2646 65.0855 52.607 61.2042 51.9769C57.3228 51.3468 53.6656 53.9828 53.0356 57.8646C52.4056 61.7464 55.0413 65.404 58.9226 66.0341C62.804 66.6642 66.4612 64.0282 67.0912 60.1464Z" fill="#EBF1F1"/>
</g>
</svg>
